<svg width="25" height="25" viewBox="0 0 25 25" fill="none" xmlns="http://www.w3.org/2000/svg">
<path d="M17.9867 15.707L13.0123 12.2285V6.25C13.0123 5.96823 12.7818 5.7377 12.5 5.7377C12.2182 5.7377 11.9877 5.96823 11.9877 6.25V12.5C11.9877 12.6691 12.0697 12.8227 12.208 12.9201L17.4027 16.5523C17.4898 16.6137 17.5922 16.6445 17.6947 16.6445C17.8535 16.6445 18.0123 16.5676 18.1148 16.4191C18.2736 16.1885 18.2172 15.8709 17.9867 15.707Z" fill="#FFE600"/>
<path d="M21.332 3.66803C18.9652 1.30123 15.8299 0 12.5 0C9.17008 0 6.03484 1.30123 3.66803 3.66803C1.30123 6.03484 0 9.17008 0 12.5C0 15.8299 1.30123 18.9652 3.66803 21.332C6.03484 23.6988 9.17008 25 12.5 25C15.8299 25 18.9652 23.6988 21.332 21.332C23.6988 18.9652 25 15.8299 25 12.5C25 9.17008 23.6988 6.03484 21.332 3.66803ZM13.0123 23.9652V21.875C13.0123 21.5932 12.7818 21.3627 12.5 21.3627C12.2182 21.3627 11.9877 21.5932 11.9877 21.875V23.9652C6.06557 23.7039 1.29611 18.9344 1.03484 13.0123H3.125C3.40676 13.0123 3.6373 12.7818 3.6373 12.5C3.6373 12.2182 3.40676 11.9877 3.125 11.9877H1.03484C1.29611 6.06557 6.06557 1.29611 11.9877 1.03484V3.125C11.9877 3.40676 12.2182 3.6373 12.5 3.6373C12.7818 3.6373 13.0123 3.40676 13.0123 3.125V1.03484C18.9344 1.29611 23.7039 6.06557 23.9652 11.9877H21.875C21.5932 11.9877 21.3627 12.2182 21.3627 12.5C21.3627 12.7818 21.5932 13.0123 21.875 13.0123H23.9652C23.7039 18.9344 18.9344 23.7039 13.0123 23.9652Z" fill="#FFE600"/>
</svg>
