<svg width="25" height="26" viewBox="0 0 25 26" fill="none" xmlns="http://www.w3.org/2000/svg">
<path d="M22.3958 4.33334H20.1389V5.77779H22.2222V21.6667H2.77778V5.77779H4.86112V4.33334H2.60417C2.44184 4.33616 2.28163 4.37222 2.13269 4.43944C1.98376 4.50667 1.84901 4.60375 1.73616 4.72514C1.62331 4.84653 1.53455 4.98986 1.47497 5.14693C1.41539 5.304 1.38614 5.47174 1.3889 5.64057V21.8039C1.38614 21.9727 1.41539 22.1405 1.47497 22.2975C1.53455 22.4546 1.62331 22.5979 1.73616 22.7193C1.84901 22.8407 1.98376 22.9378 2.13269 23.005C2.28163 23.0722 2.44184 23.1083 2.60417 23.1111H22.3958C22.5582 23.1083 22.7184 23.0722 22.8673 23.005C23.0163 22.9378 23.151 22.8407 23.2639 22.7193C23.3767 22.5979 23.4655 22.4546 23.525 22.2975C23.5846 22.1405 23.6139 21.9727 23.6111 21.8039V5.64057C23.6139 5.47174 23.5846 5.304 23.525 5.14693C23.4655 4.98986 23.3767 4.84653 23.2639 4.72514C23.151 4.60375 23.0163 4.50667 22.8673 4.43944C22.7184 4.37222 22.5582 4.33616 22.3958 4.33334Z" fill="#FFE600"/>
<path d="M6.94443 10.1111H5.55554V11.5556H6.94443V10.1111Z" fill="#FFE600"/>
<path d="M11.1111 10.1111H9.72223V11.5556H11.1111V10.1111Z" fill="#FFE600"/>
<path d="M15.2778 10.1111H13.8889V11.5556H15.2778V10.1111Z" fill="#FFE600"/>
<path d="M19.4444 10.1111H18.0555V11.5556H19.4444V10.1111Z" fill="#FFE600"/>
<path d="M6.94443 13.7222H5.55554V15.1667H6.94443V13.7222Z" fill="#FFE600"/>
<path d="M11.1111 13.7222H9.72223V15.1667H11.1111V13.7222Z" fill="#FFE600"/>
<path d="M15.2778 13.7222H13.8889V15.1667H15.2778V13.7222Z" fill="#FFE600"/>
<path d="M19.4444 13.7222H18.0555V15.1667H19.4444V13.7222Z" fill="#FFE600"/>
<path d="M6.94443 17.3333H5.55554V18.7778H6.94443V17.3333Z" fill="#FFE600"/>
<path d="M11.1111 17.3333H9.72223V18.7778H11.1111V17.3333Z" fill="#FFE600"/>
<path d="M15.2778 17.3333H13.8889V18.7778H15.2778V17.3333Z" fill="#FFE600"/>
<path d="M19.4444 17.3333H18.0555V18.7778H19.4444V17.3333Z" fill="#FFE600"/>
<path d="M6.94444 7.22224C7.12862 7.22224 7.30526 7.14614 7.43549 7.0107C7.56572 6.87526 7.63889 6.69156 7.63889 6.50001V2.16668C7.63889 1.97513 7.56572 1.79143 7.43549 1.65599C7.30526 1.52055 7.12862 1.44446 6.94444 1.44446C6.76027 1.44446 6.58363 1.52055 6.4534 1.65599C6.32316 1.79143 6.25 1.97513 6.25 2.16668V6.50001C6.25 6.69156 6.32316 6.87526 6.4534 7.0107C6.58363 7.14614 6.76027 7.22224 6.94444 7.22224Z" fill="#FFE600"/>
<path d="M18.0556 7.22224C18.2397 7.22224 18.4164 7.14614 18.5466 7.0107C18.6768 6.87526 18.75 6.69156 18.75 6.50001V2.16668C18.75 1.97513 18.6768 1.79143 18.5466 1.65599C18.4164 1.52055 18.2397 1.44446 18.0556 1.44446C17.8714 1.44446 17.6947 1.52055 17.5645 1.65599C17.4343 1.79143 17.3611 1.97513 17.3611 2.16668V6.50001C17.3611 6.69156 17.4343 6.87526 17.5645 7.0107C17.6947 7.14614 17.8714 7.22224 18.0556 7.22224Z" fill="#FFE600"/>
<path d="M15.9722 4.33334H9.02777V5.77779H15.9722V4.33334Z" fill="#FFE600"/>
</svg>
