<svg width="35" height="35" viewBox="0 0 35 35" fill="none" xmlns="http://www.w3.org/2000/svg">
<g clip-path="url(#clip0_218_5)">
<path d="M17.5 35C7.875 35 0 27.125 0 17.5C0 7.875 7.875 0 17.5 0C27.125 0 35 7.875 35 17.5C35 27.125 27.125 35 17.5 35ZM17.5 2.91667C9.47917 2.91667 2.91667 9.47917 2.91667 17.5C2.91667 25.5208 9.47917 32.0833 17.5 32.0833C25.5208 32.0833 32.0833 25.5208 32.0833 17.5C32.0833 9.47917 25.5208 2.91667 17.5 2.91667Z" fill="#FFE600"/>
<path d="M21.875 20.4167C21.4375 20.4167 21.1458 20.2708 20.8541 19.9792L17.5 16.625L14.1458 19.9792C13.5625 20.5625 12.6875 20.5625 12.1041 19.9792C11.5208 19.3958 11.5208 18.5208 12.1041 17.9375L16.4791 13.5625C17.0625 12.9792 17.9375 12.9792 18.5208 13.5625L22.8958 17.9375C23.4791 18.5208 23.4791 19.3958 22.8958 19.9792C22.6041 20.2708 22.3125 20.4167 21.875 20.4167Z" fill="#FFE600"/>
</g>
<defs>
<clipPath id="clip0_218_5">
<rect width="35" height="35" fill="white"/>
</clipPath>
</defs>
</svg>
